<svg version="1.1" xmlns="http://www.w3.org/2000/svg" xmlns:xlink="http://www.w3.org/1999/xlink"
    width="24px" height="24px" viewBox="0,0,256,256">
    <g fill="#9f2f06" fill-rule="nonzero" stroke="none" stroke-width="1" stroke-linecap="butt"
        stroke-linejoin="miter" stroke-miterlimit="10" stroke-dasharray="" stroke-dashoffset="0"
        font-family="none" font-weight="none" font-size="none" text-anchor="none"
        style="mix-blend-mode: normal">
        <g transform="scale(10.66667,10.66667)">
            <path
                d="M10.49023,2c-0.479,0 -0.88847,0.33859 -0.98047,0.80859l-0.33398,1.71484c-0.828,0.312 -1.58314,0.74606 -2.24414,1.28906l-1.64453,-0.56641c-0.453,-0.156 -0.95141,0.03227 -1.19141,0.44727l-1.50977,2.61328c-0.239,0.415 -0.15202,0.94186 0.20898,1.25586l1.31836,1.14648c-0.077,0.471 -0.11328,0.89302 -0.11328,1.29102c0,0.395 0.03728,0.81797 0.11328,1.29297l-1.31836,1.14648c-0.361,0.314 -0.44798,0.84086 -0.20898,1.25586l1.50977,2.61328c0.239,0.414 0.73841,0.60131 1.19141,0.44531l1.64453,-0.56641c0.663,0.544 1.41714,0.97902 2.24414,1.29102c0,0 0.04788,0.52344 0.29688,1.52344c0.248,1 1.04297,1 1.04297,1h0.42969l1.68164,-5.57812c0.255,-0.846 1.03206,-1.42383 1.91406,-1.42383h7.27344l0.01172,-0.02148l-1.93945,-1.6875c0.077,-0.471 0.11328,-0.89302 0.11328,-1.29102c0,-0.398 -0.03628,-0.82097 -0.11328,-1.29297l1.31836,-1.14648c0.361,-0.314 0.44798,-0.84086 0.20898,-1.25586l-1.50977,-2.61328c-0.239,-0.414 -0.73841,-0.60131 -1.19141,-0.44531l-1.64453,0.56641c-0.663,-0.544 -1.41714,-0.97902 -2.24414,-1.29102l-0.33399,-1.71289c-0.091,-0.47 -0.50147,-0.80859 -0.98047,-0.80859zM12,9c1.657,0 3,1.343 3,3c0,1.657 -1.343,3 -3,3c-1.657,0 -3,-1.343 -3,-3c0,-1.657 1.343,-3 3,-3zM14.3457,17l-1.3457,5h1.05273l0.25781,-1h1.36719l0.25977,1h1.0625l-1.35352,-5zM18,17v5h1v-2h0.5c0.828,0 1.5,-0.672 1.5,-1.5c0,-0.828 -0.672,-1.5 -1.5,-1.5zM22,17v5h1v-5zM19,18h0.5c0.276,0 0.5,0.224 0.5,0.5c0,0.276 -0.224,0.5 -0.5,0.5h-0.5zM14.99219,18.35352l0.42773,1.64648h-0.85156z"></path>
        </g>
    </g>
</svg>